<svg version="1.1" id="Layer_1" xmlns="http://www.w3.org/2000/svg" xmlns:xlink="http://www.w3.org/1999/xlink" x="0px" y="0px"
	 width="100%" viewBox="0 0 332 96" enable-background="new 0 0 332 96" xml:space="preserve">
<path fill="#FDFDFD" opacity="1.000000" stroke="none" 
	d="
M230.000000,97.000000 
	C153.333359,97.000000 77.166710,97.000000 1.000051,97.000000 
	C1.000034,65.000031 1.000034,33.000065 1.000017,1.000073 
	C111.666603,1.000048 222.333206,1.000048 332.999878,1.000024 
	C332.999908,32.999928 332.999908,64.999855 332.999939,96.999893 
	C298.833344,97.000000 264.666656,97.000000 230.000000,97.000000 
M240.531158,69.509163 
	C247.720551,70.645309 252.935852,67.172012 255.985077,59.249462 
	C254.024399,59.131882 252.049942,59.013477 250.133652,58.100250 
	C250.470261,54.932430 250.806885,51.764610 251.209229,47.978188 
	C248.633316,49.282333 246.930069,50.282204 245.120911,51.023647 
	C243.136597,51.836868 240.991226,52.265991 239.027802,53.119568 
	C234.289978,55.179253 231.336182,60.089359 232.086411,64.664185 
	C232.863983,69.405853 237.276093,67.669792 240.531158,69.509163 
M101.148598,62.956909 
	C99.342155,59.935360 97.138397,60.629776 94.871712,62.319538 
	C91.267067,65.006721 87.729408,67.785767 84.083138,70.414612 
	C78.874229,74.170074 74.147255,73.872231 69.768974,69.398605 
	C65.109528,64.637703 60.534412,59.789219 56.055534,54.858120 
	C51.783188,50.154408 51.725368,45.232235 55.924053,40.569363 
	C60.269627,35.743355 64.723778,31.007519 69.289597,26.389599 
	C73.699837,21.929041 78.690773,21.707867 83.561005,25.634834 
	C86.930550,28.351774 89.993507,31.482841 93.537590,33.930599 
	C94.740211,34.761200 96.995514,34.067638 98.769775,34.070568 
	C98.493103,32.326675 98.831787,29.986551 97.826302,28.948820 
	C94.594353,25.613224 90.973358,22.621679 87.306458,19.747419 
	C80.120605,14.114864 71.208527,14.661232 64.683846,21.185246 
	C59.856384,26.012211 55.171711,30.992388 50.608067,36.070251 
	C44.290298,43.099888 44.270576,52.118797 50.568710,59.123302 
	C55.356285,64.447830 59.957577,70.073051 65.447975,74.582985 
	C68.796104,77.333221 73.735870,79.802200 77.849518,79.636497 
	C87.972565,79.228722 94.443588,71.557320 101.270164,65.071701 
	C101.531158,64.823746 101.358833,64.119698 101.148598,62.956909 
M79.905914,44.709656 
	C78.915276,46.119034 77.924644,47.528412 76.934013,48.937790 
	C78.402458,49.742577 79.852943,51.202682 81.342323,51.243492 
	C89.653786,51.471230 97.982353,51.543510 106.286079,51.204159 
	C108.022163,51.133205 109.678482,49.110332 111.371559,47.986954 
	C109.675652,46.872574 108.014847,44.863556 106.277893,44.795418 
	C97.807030,44.463127 89.315834,44.649334 79.905914,44.709656 
M202.340240,52.822124 
	C198.036789,52.705795 193.882874,53.656361 192.905106,58.311565 
	C192.329025,61.054329 192.801102,64.865311 194.391388,67.025795 
	C197.101761,70.708023 201.476166,70.663269 205.779999,69.175774 
	C207.060562,68.733192 208.623474,69.107491 210.231415,69.107491 
	C210.231415,66.314552 210.231415,63.595119 210.231415,60.358967 
	C207.333588,60.581116 204.802094,60.775181 202.270615,60.969250 
	C202.262817,61.463779 202.255020,61.958313 202.247223,62.452843 
	C203.705307,62.827877 205.163391,63.202908 206.622833,63.578846 
	C204.629211,67.132408 200.999420,68.472725 198.219498,66.412086 
	C195.152084,64.138359 195.250946,60.920879 196.763123,57.892288 
	C198.239868,54.934650 202.237442,54.698009 205.473831,56.886013 
	C206.693619,57.710659 208.179932,58.141033 209.544754,58.751141 
	C209.860886,58.049213 210.177017,57.347282 210.493149,56.645355 
	C208.054688,55.387413 205.616211,54.129475 202.340240,52.822124 
M128.863525,36.007278 
	C128.978867,36.503685 129.361252,37.174660 129.168442,37.469616 
	C127.138252,40.575253 124.190117,40.799870 121.357651,39.114536 
	C118.007568,37.121220 118.108078,33.681404 119.663139,30.747402 
	C121.339561,27.584415 124.395363,27.421459 127.472244,28.914072 
	C129.110901,29.708992 130.677658,30.652117 132.276871,31.528347 
	C130.308334,25.822823 124.777489,24.042614 119.786835,26.335480 
	C115.777458,28.177515 113.971848,33.015461 115.670425,37.365025 
	C117.361824,41.696239 122.241394,43.691193 127.368645,42.297203 
	C129.177521,41.805416 131.083374,41.670395 133.118057,41.344788 
	C133.118057,38.946880 133.118057,36.186234 133.118057,33.040298 
	C130.309845,33.191784 127.798134,33.327271 125.286430,33.462761 
	C125.214127,33.972603 125.141830,34.482445 125.069527,34.992287 
	C126.084297,35.304901 127.099060,35.617512 128.863525,36.007278 
M196.864273,41.095112 
	C196.864273,37.867886 196.864273,34.640663 196.864273,31.103596 
	C202.261383,34.172688 202.863022,42.146248 210.209839,42.112938 
	C211.348694,27.870878 211.036819,26.276161 206.891754,26.633419 
	C206.891754,29.959066 206.891754,33.337284 206.891754,36.853714 
	C201.715652,33.917965 201.153214,25.930496 193.507095,25.968590 
	C193.507095,30.852575 193.347961,35.185841 193.641037,39.488300 
	C193.699814,40.351120 195.479462,41.096725 196.864273,41.095112 
M173.297913,66.876793 
	C173.968018,67.766273 174.638123,68.655746 175.308212,69.545219 
	C176.165787,67.516151 177.023346,65.487076 177.933990,63.332405 
	C183.398514,62.966259 183.305618,63.008831 185.586609,67.985840 
	C185.973663,68.830383 187.545593,69.131889 188.500992,69.647011 
	C188.760086,65.042427 189.445786,61.135098 188.969284,57.375050 
	C188.770111,55.803307 186.265671,53.650578 184.522369,53.331917 
	C181.041473,52.695625 177.362411,53.143269 173.297806,53.143269 
	C173.297806,57.774513 173.297806,61.887581 173.297913,66.876793 
M166.997299,69.614059 
	C168.001434,69.154892 169.005569,68.695732 170.009705,68.236572 
	C169.870514,67.789139 169.731323,67.341705 169.592117,66.894272 
	C167.299866,66.894272 164.999908,66.774956 162.717194,66.922493 
	C159.372467,67.138687 157.983627,66.119453 159.466385,62.939388 
	C162.882339,62.543766 166.054428,62.176392 169.226501,61.809013 
	C169.132111,61.150246 169.037720,60.491474 168.943329,59.832706 
	C166.833282,59.832706 164.722580,59.866657 162.613358,59.825062 
	C159.108932,59.755955 159.109329,59.735519 159.663773,56.140499 
	C163.026978,55.948730 166.395157,55.756683 169.763336,55.564632 
	C169.722336,54.947868 169.681335,54.331104 169.640320,53.714340 
	C164.952072,53.714340 160.263824,53.714340 155.500397,53.714340 
	C155.500397,58.938469 155.500397,64.006073 155.500397,69.617249 
	C159.205811,69.617249 162.655716,69.617249 166.997299,69.614059 
M286.211670,38.477993 
	C286.999664,39.829933 287.787689,41.181877 288.575684,42.533817 
	C289.785706,37.912601 290.363495,34.022953 289.953857,30.240213 
	C289.787354,28.702568 287.630341,26.424740 286.106293,26.179647 
	C282.410675,25.585339 278.554993,25.986458 274.828217,25.986458 
	C272.968567,36.931625 273.910461,41.896221 277.806915,41.487904 
	C277.891113,39.747841 277.976471,37.982872 278.117615,35.065220 
	C281.149628,36.040840 283.596466,36.828159 286.211670,38.477993 
M121.569397,66.898186 
	C120.763573,65.783783 119.957748,64.669380 118.775871,63.034916 
	C123.440941,62.556938 126.702087,62.222805 130.767838,61.806232 
	C127.110764,57.838531 121.072395,62.668110 119.166061,56.255478 
	C123.404396,55.960796 126.804276,55.724411 130.204163,55.488026 
	C130.191086,54.937191 130.178024,54.386360 130.164948,53.835526 
	C125.544937,53.835526 120.924927,53.835526 116.148804,53.835526 
	C116.148804,58.854851 116.148804,63.943565 116.148804,69.488190 
	C121.027321,69.374725 125.779633,70.234352 130.314362,68.967239 
	C130.285889,68.280960 130.257416,67.594688 130.228943,66.908409 
	C127.654457,66.908409 125.079971,66.908409 121.569397,66.898186 
M137.293961,62.850368 
	C137.293961,61.442860 137.293961,60.035355 137.293961,57.340717 
	C139.969742,60.645634 141.741852,62.978989 143.670242,65.175125 
	C145.561371,67.328819 146.782822,71.065651 151.011993,68.809395 
	C151.011993,64.530403 151.111938,60.373486 150.941711,56.227669 
	C150.899155,55.191437 149.986542,54.190941 149.473816,53.174023 
	C148.896408,54.135204 147.911346,55.059711 147.820938,56.064705 
	C147.585236,58.684654 147.741608,61.339874 147.741608,64.358162 
	C142.253555,60.975639 141.451157,53.524349 134.007523,52.940910 
	C134.007523,56.895790 133.846741,60.373821 134.071289,63.826794 
	C134.194626,65.723358 134.967133,67.577713 135.446930,69.451103 
	C136.062302,67.532982 136.677689,65.614868 137.293961,62.850368 
M307.264221,26.813454 
	C302.945984,26.418596 298.627747,26.023737 294.268433,25.625120 
	C294.268433,31.666452 294.268433,36.733292 294.268433,42.185856 
	C296.801941,42.185856 299.087646,42.124214 301.368835,42.199970 
	C304.998505,42.320507 308.482147,42.109554 310.066406,38.084133 
	C311.648621,34.063862 311.403107,30.301744 307.264221,26.813454 
M265.013641,38.177826 
	C266.822601,39.631573 268.631561,41.085320 270.440521,42.539066 
	C270.791656,42.173534 271.142792,41.808006 271.493927,41.442478 
	C269.476196,36.909042 267.554047,32.328499 265.361786,27.881077 
	C264.911957,26.968519 263.438599,26.032423 262.460693,26.056795 
	C261.483093,26.081160 260.106659,27.086130 259.647217,28.024586 
	C257.476166,32.458920 255.559525,37.017796 253.022614,42.723232 
	C255.194687,41.948578 257.022095,41.798843 257.228546,41.140648 
	C258.447266,37.255352 261.504089,38.260704 265.013641,38.177826 
M148.817017,36.392567 
	C149.172821,37.467751 149.324570,38.681767 149.937180,39.582226 
	C150.667252,40.655323 151.792572,41.459534 152.748657,42.382168 
	C153.110397,37.734066 153.869614,34.127018 153.455276,30.660234 
	C153.253738,28.974031 151.048981,26.518408 149.417709,26.217356 
	C145.775772,25.545238 141.924500,26.007307 137.871643,26.007307 
	C137.871643,29.601290 137.658295,32.752041 137.945465,35.856499 
	C138.142044,37.981747 139.035736,40.042507 139.617767,42.132095 
	C140.407257,40.238285 141.196747,38.344475 142.164490,36.023067 
	C143.781693,36.023067 145.898438,36.023067 148.817017,36.392567 
M186.849487,28.483826 
	C187.855820,28.158422 188.862152,27.833017 189.868484,27.507614 
	C189.777405,27.111734 189.686325,26.715853 189.595245,26.319973 
	C185.078812,26.319973 180.562378,26.319973 175.859558,26.319973 
	C175.859558,31.456776 175.859558,36.660492 175.859558,41.495102 
	C180.756134,41.495102 185.306412,41.495102 189.856705,41.495102 
	C189.862579,41.026257 189.868469,40.557407 189.874359,40.088562 
	C186.417679,39.884060 182.960999,39.679558 179.331879,39.464855 
	C179.331879,37.987358 179.331879,36.658424 179.331879,35.268333 
	C182.819977,35.113625 185.960464,34.974335 189.100937,34.835041 
	C189.125031,34.269566 189.149139,33.704090 189.173248,33.138615 
	C187.129898,32.953682 185.086136,32.615772 183.043304,32.621273 
	C180.286774,32.628693 177.791428,32.662861 179.562729,28.487259 
	C181.675659,28.487259 183.825287,28.487259 186.849487,28.483826 
M233.759293,28.662384 
	C233.758530,31.155785 233.560379,33.669838 233.818390,36.136166 
	C234.031403,38.172089 234.784058,40.151546 235.297607,42.156029 
	C235.940094,40.276897 236.580887,38.397186 237.226303,36.519058 
	C237.380203,36.071205 237.549515,35.628643 237.683884,35.260021 
	C240.877411,35.260021 243.941956,35.260021 247.128815,35.260021 
	C247.128815,36.933609 246.868393,38.333740 247.211914,39.565430 
	C247.482697,40.536282 248.497360,41.299671 249.181625,42.155197 
	C249.727539,41.320385 250.714996,40.501305 250.745407,39.648129 
	C250.904007,35.196526 250.819366,30.736250 250.819366,26.252592 
	C244.628586,25.077250 248.673798,30.699627 246.792236,31.708755 
	C243.369125,31.708755 240.327713,31.708755 237.889175,31.708755 
	C237.150620,29.417496 236.591614,27.683260 236.032608,25.949020 
	C235.278595,26.532583 234.524567,27.116144 233.759293,28.662384 
M217.588562,25.909443 
	C216.693771,26.531473 215.054977,27.118221 215.023529,27.781200 
	C214.799698,32.501217 214.904190,37.236805 214.904190,41.967438 
	C215.535187,42.143459 216.166183,42.319485 216.797180,42.495510 
	C217.579224,40.432430 218.361267,38.369347 219.265182,35.984776 
	C221.216873,35.984776 223.365463,36.131977 225.485825,35.950035 
	C228.611176,35.681854 230.729874,33.689602 229.959076,30.722975 
	C229.478363,28.872847 227.300919,26.886381 225.416885,26.135639 
	C223.414993,25.337933 220.860168,25.927896 217.588562,25.909443 
M161.498871,42.147823 
	C164.945953,42.147823 168.393051,42.147823 171.840134,42.147823 
	C171.850922,41.457458 171.861694,40.767094 171.872482,40.076729 
	C168.433350,39.880119 164.994217,39.683514 161.301208,39.472389 
	C161.301208,38.019794 161.301208,36.686817 161.301208,35.374958 
	C164.804962,35.116642 167.979691,34.882584 171.154404,34.648521 
	C171.129288,34.071732 171.104172,33.494942 171.079056,32.918152 
	C167.782196,32.724026 164.485336,32.529896 160.569748,32.299335 
	C162.099457,24.901880 169.350906,31.120153 172.204803,26.445210 
	C167.021088,26.445210 162.411133,26.445210 157.558456,26.445210 
	C157.558456,30.841829 157.384613,35.169476 157.692581,39.462563 
	C157.761230,40.419689 159.523590,41.255318 161.498871,42.147823 
M213.877609,54.235088 
	C216.027130,58.708492 221.108932,61.811680 220.159348,67.788223 
	C220.084045,68.262085 221.312180,68.943047 221.934570,69.527771 
	C222.553452,68.759491 223.381821,68.080231 223.752960,67.206703 
	C224.999451,64.272835 225.954117,61.210781 227.278671,58.315929 
	C228.035263,56.662365 229.292770,55.237988 230.324738,53.710419 
	C229.766479,53.236980 229.208206,52.763542 228.649948,52.290108 
	C226.271286,54.727131 223.892624,57.164158 221.518188,59.596840 
	C217.302826,53.380356 217.302826,53.380356 213.877609,54.235088 
z"/>
<path fill="#10BA8D" opacity="1.000000" stroke="none" 
	d="
M101.268517,63.292545 
	C101.358833,64.119698 101.531158,64.823746 101.270164,65.071701 
	C94.443588,71.557320 87.972565,79.228722 77.849518,79.636497 
	C73.735870,79.802200 68.796104,77.333221 65.447975,74.582985 
	C59.957577,70.073051 55.356285,64.447830 50.568710,59.123302 
	C44.270576,52.118797 44.290298,43.099888 50.608067,36.070251 
	C55.171711,30.992388 59.856384,26.012211 64.683846,21.185246 
	C71.208527,14.661232 80.120605,14.114864 87.306458,19.747419 
	C90.973358,22.621679 94.594353,25.613224 97.826302,28.948820 
	C98.831787,29.986551 98.493103,32.326675 98.769775,34.070568 
	C96.995514,34.067638 94.740211,34.761200 93.537590,33.930599 
	C89.993507,31.482841 86.930550,28.351774 83.561005,25.634834 
	C78.690773,21.707867 73.699837,21.929041 69.289597,26.389599 
	C64.723778,31.007519 60.269627,35.743355 55.924053,40.569363 
	C51.725368,45.232235 51.783188,50.154408 56.055534,54.858120 
	C60.534412,59.789219 65.109528,64.637703 69.768974,69.398605 
	C74.147255,73.872231 78.874229,74.170074 84.083138,70.414612 
	C87.729408,67.785767 91.267067,65.006721 94.871712,62.319538 
	C97.138397,60.629776 99.342155,59.935360 101.268517,63.292545 
z"/>
<path fill="#16BD91" opacity="1.000000" stroke="none" 
	d="
M240.007721,68.935944 
	C237.276093,67.669792 232.863983,69.405853 232.086411,64.664185 
	C231.336182,60.089359 234.289978,55.179253 239.027802,53.119568 
	C240.991226,52.265991 243.136597,51.836868 245.120911,51.023647 
	C246.930069,50.282204 248.633316,49.282333 251.209229,47.978188 
	C250.806885,51.764610 250.470261,54.932430 250.028580,58.855293 
	C248.476318,61.481716 247.222488,63.557110 245.525818,65.165283 
	C243.929382,66.678459 241.865799,67.698792 240.007721,68.935944 
z"/>
<path fill="#08B98B" opacity="1.000000" stroke="none" 
	d="
M80.368866,44.680874 
	C89.315834,44.649334 97.807030,44.463127 106.277893,44.795418 
	C108.014847,44.863556 109.675652,46.872574 111.371559,47.986954 
	C109.678482,49.110332 108.022163,51.133205 106.286079,51.204159 
	C97.982353,51.543510 89.653786,51.471230 81.342323,51.243492 
	C79.852943,51.202682 78.402458,49.742577 76.934013,48.937790 
	C77.924644,47.528412 78.915276,46.119034 80.368866,44.680874 
z"/>
<path fill="#285E2F" opacity="1.000000" stroke="none" 
	d="
M202.759003,52.846828 
	C205.616211,54.129475 208.054688,55.387413 210.493149,56.645355 
	C210.177017,57.347282 209.860886,58.049213 209.544754,58.751141 
	C208.179932,58.141033 206.693619,57.710659 205.473831,56.886013 
	C202.237442,54.698009 198.239868,54.934650 196.763123,57.892288 
	C195.250946,60.920879 195.152084,64.138359 198.219498,66.412086 
	C200.999420,68.472725 204.629211,67.132408 206.622162,63.578392 
	C205.163391,63.202908 203.705307,62.827877 202.247223,62.452843 
	C202.255020,61.958313 202.262817,61.463779 202.270615,60.969250 
	C204.802094,60.775181 207.333588,60.581116 210.231415,60.358967 
	C210.231415,63.595119 210.231415,66.314552 210.231415,69.107491 
	C208.623474,69.107491 207.060562,68.733192 205.779999,69.175774 
	C201.476166,70.663269 197.101761,70.708023 194.391388,67.025795 
	C192.801102,64.865311 192.329025,61.054329 192.905106,58.311565 
	C193.882874,53.656361 198.036789,52.705795 202.759003,52.846828 
z"/>
<path fill="#2B6031" opacity="1.000000" stroke="none" 
	d="
M128.488678,35.968700 
	C127.099060,35.617512 126.084297,35.304901 125.069527,34.992287 
	C125.141830,34.482445 125.214127,33.972603 125.286430,33.462761 
	C127.798134,33.327271 130.309845,33.191784 133.118057,33.040298 
	C133.118057,36.186234 133.118057,38.946880 133.118057,41.344788 
	C131.083374,41.670395 129.177521,41.805416 127.368645,42.297203 
	C122.241394,43.691193 117.361824,41.696239 115.670425,37.365025 
	C113.971848,33.015461 115.777458,28.177515 119.786835,26.335480 
	C124.777489,24.042614 130.308334,25.822823 132.276871,31.528347 
	C130.677658,30.652117 129.110901,29.708992 127.472244,28.914072 
	C124.395363,27.421459 121.339561,27.584415 119.663139,30.747402 
	C118.108078,33.681404 118.007568,37.121220 121.357651,39.114536 
	C124.190117,40.799870 127.138252,40.575253 129.168442,37.469616 
	C129.361252,37.174660 128.978867,36.503685 128.488678,35.968700 
z"/>
<path fill="#215827" opacity="1.000000" stroke="none" 
	d="
M196.664948,41.495743 
	C195.479462,41.096725 193.699814,40.351120 193.641037,39.488300 
	C193.347961,35.185841 193.507095,30.852575 193.507095,25.968590 
	C201.153214,25.930496 201.715652,33.917965 206.891754,36.853714 
	C206.891754,33.337284 206.891754,29.959066 206.891754,26.633419 
	C211.036819,26.276161 211.348694,27.870878 210.209839,42.112938 
	C202.863022,42.146248 202.261383,34.172688 196.864273,31.103596 
	C196.864273,34.640663 196.864273,37.867886 196.664948,41.495743 
z"/>
<path fill="#2F6336" opacity="1.000000" stroke="none" 
	d="
M173.297852,66.438721 
	C173.297806,61.887581 173.297806,57.774513 173.297806,53.143269 
	C177.362411,53.143269 181.041473,52.695625 184.522369,53.331917 
	C186.265671,53.650578 188.770111,55.803307 188.969284,57.375050 
	C189.445786,61.135098 188.760086,65.042427 188.500992,69.647011 
	C187.545593,69.131889 185.973663,68.830383 185.586609,67.985840 
	C183.305618,63.008831 183.398514,62.966259 177.933990,63.332405 
	C177.023346,65.487076 176.165787,67.516151 175.308228,69.545227 
	C174.638123,68.655746 173.968018,67.766273 173.297852,66.438721 
M180.367279,60.538578 
	C182.105392,59.631866 183.843506,58.725155 185.581619,57.818451 
	C182.939941,56.939140 180.298279,56.059834 177.656601,55.180523 
	C177.200714,55.832798 176.744827,56.485073 176.288940,57.137348 
	C177.375183,58.270218 178.461426,59.403091 180.367279,60.538578 
z"/>
<path fill="#34673A" opacity="1.000000" stroke="none" 
	d="
M166.551453,69.615654 
	C162.655716,69.617249 159.205811,69.617249 155.500397,69.617249 
	C155.500397,64.006073 155.500397,58.938469 155.500397,53.714340 
	C160.263824,53.714340 164.952072,53.714340 169.640320,53.714340 
	C169.681335,54.331104 169.722336,54.947868 169.763336,55.564632 
	C166.395157,55.756683 163.026978,55.948730 159.663773,56.140499 
	C159.109329,59.735519 159.108932,59.755955 162.613358,59.825062 
	C164.722580,59.866657 166.833282,59.832706 168.943329,59.832706 
	C169.037720,60.491474 169.132111,61.150246 169.226501,61.809013 
	C166.054428,62.176392 162.882339,62.543766 159.466385,62.939388 
	C157.983627,66.119453 159.372467,67.138687 162.717194,66.922493 
	C164.999908,66.774956 167.299866,66.894272 169.592117,66.894272 
	C169.731323,67.341705 169.870514,67.789139 170.009705,68.236572 
	C169.005569,68.695732 168.001434,69.154892 166.551453,69.615654 
z"/>
<path fill="#2B6031" opacity="1.000000" stroke="none" 
	d="
M286.127472,38.046738 
	C283.596466,36.828159 281.149628,36.040840 278.117615,35.065220 
	C277.976471,37.982872 277.891113,39.747841 277.806915,41.487904 
	C273.910461,41.896221 272.968567,36.931625 274.828217,25.986458 
	C278.554993,25.986458 282.410675,25.585339 286.106293,26.179647 
	C287.630341,26.424740 289.787354,28.702568 289.953857,30.240213 
	C290.363495,34.022953 289.785706,37.912601 288.575684,42.533817 
	C287.787689,41.181877 286.999664,39.829933 286.127472,38.046738 
M280.464203,33.138050 
	C281.464172,33.135044 282.592194,33.425282 283.433075,33.058029 
	C284.597961,32.549267 285.546997,31.546150 286.588440,30.754696 
	C285.468933,29.994011 284.439575,28.871738 283.207001,28.564369 
	C281.673645,28.181992 279.972443,28.472647 276.855927,28.472647 
	C278.151886,30.682449 278.868469,31.904366 280.464203,33.138050 
z"/>
<path fill="#2E6234" opacity="1.000000" stroke="none" 
	d="
M122.037445,66.903297 
	C125.079971,66.908409 127.654457,66.908409 130.228943,66.908409 
	C130.257416,67.594688 130.285889,68.280960 130.314362,68.967239 
	C125.779633,70.234352 121.027321,69.374725 116.148804,69.488190 
	C116.148804,63.943565 116.148804,58.854851 116.148804,53.835526 
	C120.924927,53.835526 125.544937,53.835526 130.164948,53.835526 
	C130.178024,54.386360 130.191086,54.937191 130.204163,55.488026 
	C126.804276,55.724411 123.404396,55.960796 119.166061,56.255478 
	C121.072395,62.668110 127.110764,57.838531 130.767838,61.806232 
	C126.702087,62.222805 123.440941,62.556938 118.775871,63.034916 
	C119.957748,64.669380 120.763573,65.783783 122.037445,66.903297 
z"/>
<path fill="#1E5625" opacity="1.000000" stroke="none" 
	d="
M137.293518,63.273560 
	C136.677689,65.614868 136.062302,67.532982 135.446930,69.451103 
	C134.967133,67.577713 134.194626,65.723358 134.071289,63.826794 
	C133.846741,60.373821 134.007523,56.895790 134.007523,52.940910 
	C141.451157,53.524349 142.253555,60.975639 147.741608,64.358162 
	C147.741608,61.339874 147.585236,58.684654 147.820938,56.064705 
	C147.911346,55.059711 148.896408,54.135204 149.473816,53.174023 
	C149.986542,54.190941 150.899155,55.191437 150.941711,56.227669 
	C151.111938,60.373486 151.011993,64.530403 151.011993,68.809395 
	C146.782822,71.065651 145.561371,67.328819 143.670242,65.175125 
	C141.741852,62.978989 139.969742,60.645634 137.293961,57.340717 
	C137.293961,60.035355 137.293961,61.442860 137.293518,63.273560 
z"/>
<path fill="#245B2B" opacity="1.000000" stroke="none" 
	d="
M307.631989,26.998489 
	C311.403107,30.301744 311.648621,34.063862 310.066406,38.084133 
	C308.482147,42.109554 304.998505,42.320507 301.368835,42.199970 
	C299.087646,42.124214 296.801941,42.185856 294.268433,42.185856 
	C294.268433,36.733292 294.268433,31.666452 294.268433,25.625120 
	C298.627747,26.023737 302.945984,26.418596 307.631989,26.998489 
M306.544189,37.684193 
	C308.399414,29.763374 306.094696,27.443808 298.014313,29.049126 
	C298.014313,32.551407 298.014313,36.036034 298.014313,40.310322 
	C301.074921,39.543846 303.529510,38.929146 306.544189,37.684193 
z"/>
<path fill="#245A2A" opacity="1.000000" stroke="none" 
	d="
M264.597229,38.168583 
	C261.504089,38.260704 258.447266,37.255352 257.228546,41.140648 
	C257.022095,41.798843 255.194687,41.948578 253.022614,42.723232 
	C255.559525,37.017796 257.476166,32.458920 259.647217,28.024586 
	C260.106659,27.086130 261.483093,26.081160 262.460693,26.056795 
	C263.438599,26.032423 264.911957,26.968519 265.361786,27.881077 
	C267.554047,32.328499 269.476196,36.909042 271.493927,41.442478 
	C271.142792,41.808006 270.791656,42.173534 270.440521,42.539066 
	C268.631561,41.085320 266.822601,39.631573 264.597229,38.168583 
z"/>
<path fill="#1E5524" opacity="1.000000" stroke="none" 
	d="
M148.416107,36.207817 
	C145.898438,36.023067 143.781693,36.023067 142.164490,36.023067 
	C141.196747,38.344475 140.407257,40.238285 139.617767,42.132095 
	C139.035736,40.042507 138.142044,37.981747 137.945465,35.856499 
	C137.658295,32.752041 137.871643,29.601290 137.871643,26.007307 
	C141.924500,26.007307 145.775772,25.545238 149.417709,26.217356 
	C151.048981,26.518408 153.253738,28.974031 153.455276,30.660234 
	C153.869614,34.127018 153.110397,37.734066 152.748657,42.382168 
	C151.792572,41.459534 150.667252,40.655323 149.937180,39.582226 
	C149.324570,38.681767 149.172821,37.467751 148.416107,36.207817 
M141.269485,32.444355 
	C143.481430,32.668587 145.722794,33.181030 147.889282,32.959900 
	C148.642181,32.883053 149.209778,30.990404 149.862015,29.927084 
	C147.756516,29.415964 145.651093,28.567205 143.545502,28.566839 
	C142.749756,28.566700 141.953674,30.526501 141.269485,32.444355 
z"/>
<path fill="#17511E" opacity="1.000000" stroke="none" 
	d="
M186.412201,28.485542 
	C183.825287,28.487259 181.675659,28.487259 179.562729,28.487259 
	C177.791428,32.662861 180.286774,32.628693 183.043304,32.621273 
	C185.086136,32.615772 187.129898,32.953682 189.173248,33.138615 
	C189.149139,33.704090 189.125031,34.269566 189.100937,34.835041 
	C185.960464,34.974335 182.819977,35.113625 179.331879,35.268333 
	C179.331879,36.658424 179.331879,37.987358 179.331879,39.464855 
	C182.960999,39.679558 186.417679,39.884060 189.874359,40.088562 
	C189.868469,40.557407 189.862579,41.026257 189.856705,41.495102 
	C185.306412,41.495102 180.756134,41.495102 175.859558,41.495102 
	C175.859558,36.660492 175.859558,31.456776 175.859558,26.319973 
	C180.562378,26.319973 185.078812,26.319973 189.595245,26.319973 
	C189.686325,26.715853 189.777405,27.111734 189.868484,27.507614 
	C188.862152,27.833017 187.855820,28.158422 186.412201,28.485542 
z"/>
<path fill="#295E2F" opacity="1.000000" stroke="none" 
	d="
M233.764923,28.181046 
	C234.524567,27.116144 235.278595,26.532583 236.032608,25.949022 
	C236.591614,27.683260 237.150620,29.417496 237.889175,31.708755 
	C240.327713,31.708755 243.369125,31.708755 246.792236,31.708755 
	C248.673798,30.699627 244.628586,25.077250 250.819366,26.252592 
	C250.819366,30.736250 250.904007,35.196526 250.745407,39.648129 
	C250.714996,40.501305 249.727539,41.320385 249.181625,42.155197 
	C248.497360,41.299671 247.482697,40.536282 247.211914,39.565430 
	C246.868393,38.333740 247.128815,36.933609 247.128815,35.260021 
	C243.941956,35.260021 240.877411,35.260021 237.683884,35.260021 
	C237.549515,35.628643 237.380203,36.071205 237.226303,36.519058 
	C236.580887,38.397186 235.940094,40.276897 235.297592,42.156029 
	C234.784058,40.151546 234.031403,38.172089 233.818390,36.136166 
	C233.560379,33.669838 233.758530,31.155785 233.764923,28.181046 
z"/>
<path fill="#205726" opacity="1.000000" stroke="none" 
	d="
M218.067673,25.910675 
	C220.860168,25.927896 223.414993,25.337933 225.416885,26.135639 
	C227.300919,26.886381 229.478363,28.872847 229.959076,30.722975 
	C230.729874,33.689602 228.611176,35.681854 225.485825,35.950035 
	C223.365463,36.131977 221.216873,35.984776 219.265182,35.984776 
	C218.361267,38.369347 217.579224,40.432430 216.797180,42.495510 
	C216.166183,42.319485 215.535187,42.143459 214.904190,41.967438 
	C214.904190,37.236805 214.799698,32.501217 215.023529,27.781200 
	C215.054977,27.118221 216.693771,26.531473 218.067673,25.910675 
M226.096863,32.750916 
	C226.855637,28.303690 225.062347,27.450741 218.440125,29.145128 
	C218.440125,30.405201 218.440125,31.676601 218.440125,33.153057 
	C220.905884,33.153057 223.173325,33.153057 226.096863,32.750916 
z"/>
<path fill="#16501D" opacity="1.000000" stroke="none" 
	d="
M161.002518,42.147354 
	C159.523590,41.255318 157.761230,40.419689 157.692581,39.462563 
	C157.384613,35.169476 157.558456,30.841829 157.558456,26.445210 
	C162.411133,26.445210 167.021088,26.445210 172.204803,26.445210 
	C169.350906,31.120153 162.099457,24.901880 160.569748,32.299335 
	C164.485336,32.529896 167.782196,32.724026 171.079056,32.918152 
	C171.104172,33.494942 171.129288,34.071732 171.154404,34.648521 
	C167.979691,34.882584 164.804962,35.116642 161.301208,35.374958 
	C161.301208,36.686817 161.301208,38.019794 161.301208,39.472389 
	C164.994217,39.683514 168.433350,39.880119 171.872482,40.076729 
	C171.861694,40.767094 171.850922,41.457458 171.840134,42.147823 
	C168.393051,42.147823 164.945953,42.147823 161.002518,42.147354 
z"/>
<path fill="#2B6032" opacity="1.000000" stroke="none" 
	d="
M213.885742,53.846329 
	C217.302826,53.380356 217.302826,53.380356 221.518188,59.596840 
	C223.892624,57.164158 226.271286,54.727131 228.649948,52.290108 
	C229.208206,52.763542 229.766479,53.236980 230.324738,53.710419 
	C229.292770,55.237988 228.035263,56.662365 227.278671,58.315929 
	C225.954117,61.210781 224.999451,64.272835 223.752960,67.206703 
	C223.381821,68.080231 222.553452,68.759491 221.934570,69.527771 
	C221.312180,68.943047 220.084045,68.262085 220.159348,67.788223 
	C221.108932,61.811680 216.027130,58.708492 213.885742,53.846329 
z"/>
<path fill="#5ACFB0" opacity="1.000000" stroke="none" 
	d="
M240.269440,69.222557 
	C241.865799,67.698792 243.929382,66.678459 245.525818,65.165283 
	C247.222488,63.557110 248.476318,61.481716 249.999481,59.252708 
	C252.049942,59.013477 254.024399,59.131882 255.985077,59.249462 
	C252.935852,67.172012 247.720551,70.645309 240.269440,69.222557 
z"/>
<path fill="#E5EBE6" opacity="1.000000" stroke="none" 
	d="
M179.957458,60.537270 
	C178.461426,59.403091 177.375183,58.270218 176.288940,57.137348 
	C176.744827,56.485073 177.200714,55.832798 177.656601,55.180523 
	C180.298279,56.059834 182.939941,56.939140 185.581619,57.818447 
	C183.843506,58.725155 182.105392,59.631866 179.957458,60.537270 
z"/>
<path fill="#E7EDE8" opacity="1.000000" stroke="none" 
	d="
M280.024628,33.132164 
	C278.868469,31.904366 278.151886,30.682449 276.855927,28.472647 
	C279.972443,28.472647 281.673645,28.181992 283.207001,28.564369 
	C284.439575,28.871738 285.468933,29.994011 286.588440,30.754700 
	C285.546997,31.546150 284.597961,32.549267 283.433075,33.058029 
	C282.592194,33.425282 281.464172,33.135044 280.024628,33.132164 
z"/>
<path fill="#EEF2EE" opacity="1.000000" stroke="none" 
	d="
M306.264130,37.999317 
	C303.529510,38.929146 301.074921,39.543846 298.014313,40.310322 
	C298.014313,36.036034 298.014313,32.551407 298.014313,29.049126 
	C306.094696,27.443808 308.399414,29.763374 306.264130,37.999317 
z"/>
<path fill="#E2E9E3" opacity="1.000000" stroke="none" 
	d="
M141.213623,32.018623 
	C141.953674,30.526501 142.749756,28.566700 143.545502,28.566839 
	C145.651093,28.567205 147.756516,29.415964 149.862015,29.927082 
	C149.209778,30.990404 148.642181,32.883053 147.889282,32.959900 
	C145.722794,33.181030 143.481430,32.668587 141.213623,32.018623 
z"/>
<path fill="#E1E9E2" opacity="1.000000" stroke="none" 
	d="
M225.768829,32.951988 
	C223.173325,33.153057 220.905884,33.153057 218.440125,33.153057 
	C218.440125,31.676601 218.440125,30.405201 218.440125,29.145128 
	C225.062347,27.450741 226.855637,28.303690 225.768829,32.951988 
z"/>
</svg>